<?xml version="1.0" encoding="utf-8"?>
<svg xmlns="http://www.w3.org/2000/svg" viewBox="0 0 500 500" xmlns:bx="https://boxy-svg.com" width="500px" height="500px"><defs><bx:export><bx:file format="svg"/><bx:file format="svg" href="#object-0" path="Untitled 4.svg" excluded="true"/><bx:file format="svg" href="#object-0" path="Untitled 5.svg" excluded="true"/><bx:file format="svg" href="#object-0" path="Untitled 2.svg" excluded="true"/><bx:file format="svg" href="#object-0" path="Untitled 3.svg" excluded="true"/></bx:export></defs><path d="M -249.999 -398.54 L -69.208 -101.459 L -430.79 -101.459 L -249.999 -398.54 Z" bx:shape="triangle -430.79 -398.54 361.582 297.081 0.5 0 1@f87d4c8d" style="fill: none; stroke-linejoin: round; stroke: rgb(113, 208, 255); paint-order: fill; transform-box: fill-box; transform-origin: 50% 50%; stroke-width: 30px; visibility: hidden;" transform="matrix(-1, 0, 0, -1, 499.997986, 499.998993)" id="object-0"/><path d="M 250 101.459 L 430.791 398.54 L 69.209 398.54 L 250 101.459 Z" bx:shape="triangle 69.209 101.459 361.582 297.081 0.5 0 1@80013779" style="fill: none; stroke-linejoin: round; paint-order: fill; stroke: rgb(255, 50, 0); stroke-width: 30px; visibility: hidden;"/><path d="M 250 101.459 L 430.791 398.54 L 69.209 398.54 L 250 101.459 Z" bx:shape="triangle 69.209 101.459 361.582 297.081 0.5 0 1@80013779" style="fill: none; stroke-linejoin: round; paint-order: fill; stroke: rgb(164, 180, 247); stroke-width: 30px; transform-box: fill-box; transform-origin: 50% 50%; visibility: hidden;"/><a style="transform-origin: 250.471px 288.79px; visibility: hidden;" transform="matrix(1, 0, 0, 1, -0.000231, 0.001149)"><line style="fill: rgb(216, 216, 216); stroke-linecap: round; stroke: rgb(164, 180, 247); stroke-width: 30px;" x1="69.209" y1="288.79" x2="431.732" y2="288.79"/></a><path d="M -251.179 -399.01 L -70.388 -101.929 L -431.97 -101.929 L -251.179 -399.01 Z" bx:shape="triangle -431.97 -399.01 361.582 297.081 0.5 0 1@6c6439f1" style="fill: none; stroke-linejoin: round; paint-order: fill; stroke-width: 30; stroke: rgb(197, 186, 117); transform-box: fill-box; transform-origin: 50% 50%;" transform="matrix(-1, 0, 0, -1, 502.358002, 500.938995)"/><a style="transform-origin: 250.706px 289.264px;" transform="matrix(-1, 0, 0, -1, 0.00054, -77.580521)"><line style="fill: rgb(216, 216, 216); stroke-linecap: round; stroke-width: 30; stroke: rgb(197, 186, 117);" x1="69.445" y1="289.264" x2="431.968" y2="289.264"/></a></svg>